<?xml version="1.0" standalone="no"?>
<!DOCTYPE svg PUBLIC "-//W3C//DTD SVG 20010904//EN"
 "http://www.w3.org/TR/2001/REC-SVG-20010904/DTD/svg10.dtd">
<svg version="1.0" xmlns="http://www.w3.org/2000/svg"
 width="1280.000000pt" height="1280.000000pt" viewBox="0 0 1280.000000 1280.000000"
 preserveAspectRatio="xMidYMid meet">
<metadata>
Created by potrace 1.11, written by Peter Selinger 2001-2013
</metadata>
<g transform="translate(0.000000,1280.000000) scale(0.100000,-0.100000)"
fill="#000000" stroke="none">
<path d="M6040 10719 c-751 -69 -1413 -300 -2020 -703 -549 -365 -1010 -851
-1343 -1414 -101 -170 -297 -569 -297 -604 0 -4 278 -8 618 -8 l617 0 34 58
c54 91 157 239 239 342 486 612 1183 1033 1932 1170 370 67 780 68 1146 1 649
-118 1228 -425 1708 -907 169 -170 304 -344 479 -621 l27 -43 615 0 c444 0
615 3 615 11 0 17 -85 208 -147 334 -341 683 -863 1271 -1498 1688 -600 393
-1258 623 -1979 692 -169 16 -594 19 -746 4z m739 -375 c29 -32 33 -41 28 -76
-3 -25 -16 -51 -32 -68 -26 -27 -26 -28 -9 -55 l18 -27 18 24 c9 12 18 26 18
31 0 8 94 10 102 1 4 -3 -11 -31 -33 -61 -21 -31 -39 -62 -39 -68 0 -6 11 -22
25 -35 33 -31 32 -43 -9 -73 l-33 -26 -22 29 -21 30 -33 -20 c-40 -25 -125
-27 -174 -3 -45 21 -73 67 -73 120 0 36 5 46 44 80 42 37 43 40 30 63 -33 60
-10 134 51 162 57 26 102 18 144 -28z m-744 10 c34 -14 88 -63 105 -94 11 -20
11 -20 -90 -34 -14 -2 -35 4 -49 15 -31 25 -97 25 -137 0 -66 -40 -71 -146 -9
-208 28 -28 40 -33 80 -33 40 0 52 5 81 34 19 19 34 38 34 43 0 4 -30 8 -67 8
l-68 0 -3 43 c-3 35 0 42 15 42 10 1 68 7 128 14 61 7 112 11 115 9 11 -10 1
-112 -15 -143 -45 -90 -118 -134 -220 -134 -110 0 -185 51 -221 151 -68 192
129 368 321 287z m-476 -257 c72 -101 133 -191 136 -199 5 -13 -5 -19 -51 -29
-56 -13 -57 -13 -76 14 -12 17 -27 26 -37 23 -9 -3 -42 -12 -73 -21 -55 -15
-57 -17 -60 -52 -3 -35 -5 -37 -57 -50 -29 -8 -56 -12 -59 -9 -7 7 48 469 56
478 4 4 25 12 47 17 22 5 41 9 42 10 0 1 60 -81 132 -182z m1930 132 c64 -22
96 -50 111 -95 16 -47 -2 -100 -41 -119 l-29 -15 20 -33 c25 -40 25 -68 0
-116 -14 -29 -30 -43 -62 -55 -41 -16 -47 -15 -118 4 -41 11 -94 25 -117 31
-25 7 -43 17 -43 25 0 8 25 99 56 202 30 103 57 195 60 204 5 15 9 15 57 1 29
-8 76 -23 106 -34z m-2477 -264 c32 -82 62 -153 67 -158 4 -4 29 1 55 13 26
11 54 20 61 20 16 0 49 -80 38 -91 -13 -13 -203 -81 -215 -77 -9 3 -168 388
-168 408 0 10 71 40 89 37 8 -1 39 -68 73 -152z m2942 92 l39 -22 -2 -75 c-3
-112 -20 -402 -23 -405 -2 -2 -28 7 -58 19 -53 22 -55 24 -55 61 0 38 -1 38
-69 67 l-68 29 -24 -22 c-24 -22 -24 -22 -66 -4 -24 10 -47 22 -53 27 -5 5 59
77 160 178 93 94 172 170 175 170 3 0 23 -10 44 -23z m-3214 -67 c11 -21 20
-42 20 -45 0 -3 -25 -17 -55 -31 -59 -27 -61 -30 -43 -69 14 -31 17 -31 78 0
l50 25 20 -40 c11 -21 20 -42 20 -44 0 -3 -22 -17 -50 -31 -27 -14 -50 -28
-50 -30 0 -3 16 -37 35 -75 19 -38 35 -72 35 -75 0 -2 -23 -16 -51 -30 l-50
-26 -99 203 -99 203 106 53 c58 28 108 52 109 52 2 0 13 -18 24 -40z m3620
-292 l5 -163 26 40 c14 22 45 73 68 113 24 39 47 72 52 72 5 0 27 -11 50 -25
l40 -26 -23 -38 c-85 -140 -214 -341 -219 -341 -3 0 -25 14 -47 30 l-42 30 0
152 c0 175 5 174 -85 28 -32 -52 -60 -96 -61 -98 -2 -3 -79 42 -92 54 -2 1 52
88 119 193 l123 190 40 -24 41 -25 5 -162z m-4133 -189 c109 -67 202 -124 206
-129 4 -4 -13 -24 -39 -45 l-46 -38 -33 18 -33 17 -62 -47 c-34 -26 -59 -52
-57 -59 19 -49 17 -52 -27 -84 -24 -18 -48 -32 -53 -32 -6 0 -48 144 -130 451
-3 9 10 25 34 42 21 14 39 26 40 26 2 1 92 -53 200 -120z m4551 60 l34 -30
-16 -127 c-9 -70 -19 -140 -22 -157 l-5 -30 23 26 c13 14 53 62 89 107 l67 82
42 -38 43 -38 -139 -171 c-76 -95 -143 -172 -149 -172 -5 0 -25 13 -44 29
l-34 29 18 146 c9 80 15 148 12 151 -2 3 -39 -38 -82 -91 -52 -63 -83 -94 -93
-90 -27 10 -71 50 -69 62 3 19 270 343 282 343 5 0 25 -14 43 -31z m-4945
-398 c109 -50 203 -94 209 -97 5 -4 -9 -25 -32 -49 l-43 -43 -34 16 -34 16
-55 -56 -56 -55 17 -33 17 -32 -38 -39 c-21 -22 -43 -38 -48 -36 -5 2 -51 100
-102 218 l-91 214 36 38 c19 20 40 35 46 33 5 -2 99 -45 208 -95z m5407 -26
l84 -85 -29 -30 c-16 -16 -33 -30 -39 -30 -6 0 -31 20 -56 45 l-46 45 -22 -23
-21 -22 41 -49 41 -48 -35 -35 -35 -34 -46 47 -47 48 -30 -29 -30 -29 45 -46
c25 -25 45 -50 45 -56 0 -13 -53 -64 -67 -64 -5 0 -47 40 -92 89 l-81 89 158
151 c86 83 162 150 167 151 6 0 48 -38 95 -85z m223 -257 c116 -133 126 -209
37 -293 -28 -27 -38 -30 -95 -30 l-64 0 -37 -83 -37 -83 -23 28 c-52 64 -52
63 1 178 26 58 49 105 51 105 1 0 16 -13 32 -30 36 -36 41 -36 76 -9 32 25 35
75 7 110 l-18 23 -97 -75 c-54 -41 -117 -89 -140 -106 l-43 -33 -31 44 c-18
24 -32 48 -31 53 0 11 331 261 346 262 6 1 36 -27 66 -61z m-5990 -92 c120
-35 221 -67 224 -70 4 -3 -8 -25 -25 -49 -28 -39 -34 -42 -71 -39 -39 2 -42 0
-86 -59 l-46 -62 22 -23 c26 -27 20 -49 -24 -92 l-32 -31 -127 206 -127 206
31 38 c17 22 34 39 37 39 3 0 104 -29 224 -64z"/>
<path d="M6665 10280 c-9 -28 13 -54 31 -39 8 6 14 22 14 35 0 31 -36 33 -45
4z"/>
<path d="M6632 10098 c-7 -7 -12 -21 -12 -33 0 -30 19 -45 56 -45 45 0 50 14
18 55 -28 37 -43 42 -62 23z"/>
<path d="M5400 10044 l0 -76 33 7 c57 13 58 16 19 82 -21 35 -40 63 -44 63 -5
0 -8 -34 -8 -76z"/>
<path d="M7404 10116 c-3 -14 -3 -29 0 -34 7 -12 55 -22 73 -15 20 8 15 40 -9
57 -33 23 -57 20 -64 -8z"/>
<path d="M7361 9953 c-12 -42 -7 -49 48 -59 27 -5 37 -3 48 12 25 35 7 57 -64
78 -19 6 -23 2 -32 -31z"/>
<path d="M7832 9867 l-53 -62 42 -18 c23 -9 43 -16 44 -15 4 6 26 151 23 154
-2 1 -27 -25 -56 -59z"/>
<path d="M4080 9463 c0 -9 40 -116 45 -121 4 -4 75 41 75 48 0 6 -106 80 -114
80 -3 0 -6 -3 -6 -7z"/>
<path d="M3690 9122 c0 -14 61 -122 69 -122 11 0 51 45 51 57 0 6 -27 25 -60
42 -33 18 -60 28 -60 23z"/>
<path d="M3343 8716 c3 -8 22 -37 42 -65 l37 -51 29 37 c16 20 26 40 22 43 -5
4 -37 17 -71 28 -48 16 -63 18 -59 8z"/>
<path d="M5997 9003 c-3 -5 -62 -186 -132 -403 -258 -800 -305 -945 -460
-1420 -87 -267 -213 -656 -280 -865 -68 -209 -200 -618 -295 -910 -95 -291
-214 -658 -264 -815 l-92 -285 530 -3 c291 -1 532 0 535 3 2 3 43 155 90 338
l86 332 675 0 675 0 13 -39 c12 -36 51 -181 137 -504 18 -68 35 -125 37 -128
3 -2 246 -3 540 -2 l536 3 -108 340 c-140 441 -285 900 -570 1805 -128 404
-276 875 -330 1045 -54 171 -162 513 -240 760 -78 248 -163 518 -189 600 l-48
150 -421 3 c-231 1 -423 -1 -425 -5z m418 -1588 c20 -77 67 -257 105 -400 38
-143 116 -441 174 -662 58 -220 106 -406 106 -412 0 -8 -122 -11 -420 -11
-317 0 -420 3 -420 12 0 11 396 1579 406 1607 2 8 6 12 8 10 2 -2 20 -67 41
-144z"/>
<path d="M4093 7753 c5 -18 148 -391 377 -983 67 -173 139 -360 160 -415 72
-191 91 -239 97 -249 9 -14 -36 -147 402 1205 78 240 141 441 141 448 0 8
-154 11 -591 11 -558 0 -591 -1 -586 -17z"/>
<path d="M7530 7759 c0 -7 63 -208 141 -448 438 -1352 393 -1219 402 -1205 6
10 25 58 97 249 21 55 93 242 160 415 229 592 372 965 377 983 5 16 -28 17
-586 17 -437 0 -591 -3 -591 -11z"/>
<path d="M9337 7764 c-3 -3 1 -20 9 -38 7 -17 65 -161 128 -321 63 -159 149
-378 191 -485 152 -384 248 -628 320 -810 195 -494 312 -789 368 -932 l62
-158 998 0 998 0 -12 23 c-7 12 -69 119 -139 237 -70 118 -247 418 -393 667
l-267 452 89 148 c48 81 222 373 386 648 164 275 306 514 316 531 11 17 19 34
19 38 0 8 -3065 8 -3073 0z"/>
<path d="M390 7750 c0 -6 11 -27 24 -48 13 -20 151 -251 306 -512 156 -261
325 -546 377 -633 l95 -157 -403 -688 c-221 -378 -404 -690 -406 -694 -2 -5
445 -8 994 -8 l998 0 112 283 c61 155 160 404 218 552 59 149 145 366 191 483
46 116 123 310 170 430 150 379 232 587 310 785 42 105 79 198 81 205 4 9
-306 12 -1531 12 -1039 0 -1536 -3 -1536 -10z"/>
<path d="M3737 6903 c-5 -8 -179 -559 -248 -785 -22 -69 -42 -133 -45 -142 -6
-14 24 -16 300 -16 168 0 306 3 306 6 0 7 -301 938 -305 942 -2 2 -5 0 -8 -5z"/>
<path d="M8896 6448 c-81 -254 -150 -467 -153 -475 -4 -11 50 -13 301 -13 168
0 306 3 306 6 0 3 -45 150 -101 327 -56 177 -122 388 -147 470 -26 81 -49 147
-52 147 -3 0 -72 -208 -154 -462z"/>
<path d="M3225 5278 c-20 -68 -48 -156 -60 -195 l-23 -73 609 0 c335 0 609 3
609 7 0 4 -28 92 -62 195 l-63 188 -486 0 -486 0 -38 -122z"/>
<path d="M8502 5212 c-34 -103 -62 -191 -62 -195 0 -4 274 -7 609 -7 l609 0
-23 73 c-12 39 -40 127 -60 195 l-38 122 -486 0 -486 0 -63 -188z"/>
<path d="M3460 4764 c0 -13 103 -180 176 -284 512 -739 1291 -1243 2164 -1401
293 -52 674 -67 950 -35 903 103 1704 544 2265 1246 120 151 315 443 315 474
0 3 -39 6 -88 6 l-87 0 -50 -82 c-341 -560 -903 -1031 -1525 -1276 -395 -156
-760 -225 -1190 -224 -410 0 -771 68 -1157 218 -618 238 -1190 713 -1548 1287
l-48 77 -89 0 c-48 0 -88 -3 -88 -6z"/>
<path d="M10205 4703 c-41 -98 -118 -251 -193 -383 -364 -642 -899 -1182
-1542 -1555 -492 -286 -1031 -463 -1635 -535 -148 -18 -573 -24 -740 -11 -648
52 -1250 240 -1795 558 -724 424 -1305 1060 -1671 1828 l-74 155 -82 0 -82 0
35 -81 c103 -241 275 -549 428 -767 275 -391 663 -782 1051 -1059 442 -315
957 -550 1490 -678 366 -88 677 -120 1092 -112 352 6 593 36 913 113 785 187
1495 592 2070 1180 335 342 581 687 790 1104 53 106 140 296 140 307 0 2 -38
3 -83 3 l-84 0 -28 -67z"/>
<path d="M3405 4065 c-71 -57 -131 -108 -133 -113 -6 -18 101 -132 143 -152
52 -25 78 -25 131 1 90 43 137 132 111 207 -13 37 -103 162 -116 162 -3 0 -64
-47 -136 -105z m169 -40 c27 -42 21 -83 -20 -121 -50 -48 -117 -45 -144 6 -9
16 0 27 60 79 39 34 74 61 79 61 5 0 16 -11 25 -25z"/>
<path d="M9152 4060 c-12 -16 -22 -33 -21 -37 0 -7 31 -34 195 -172 l62 -51
62 76 63 76 -24 19 c-33 26 -40 24 -74 -16 l-30 -35 -100 85 c-55 46 -103 85
-106 85 -3 0 -15 -13 -27 -30z"/>
<path d="M8985 3870 l-29 -31 126 -126 127 -127 27 24 c14 14 44 47 67 73 l40
48 -26 27 -27 26 -33 -32 c-18 -18 -37 -32 -43 -32 -5 0 -50 41 -99 90 -49 50
-92 90 -95 90 -4 0 -19 -14 -35 -30z"/>
<path d="M3660 3769 l-125 -119 72 -72 72 -72 26 24 c30 28 32 46 5 60 -34 18
-44 49 -24 71 17 19 18 19 54 -16 l36 -35 22 23 c28 30 28 35 -8 72 l-30 31
20 19 c20 18 21 18 60 -20 l40 -39 27 27 28 27 -70 70 c-38 38 -72 70 -75 69
-3 0 -61 -54 -130 -120z"/>
<path d="M8792 3687 c-12 -13 -22 -27 -22 -32 0 -13 112 -328 119 -337 3 -4
21 6 40 21 31 25 32 30 21 51 -12 22 -10 27 31 62 38 33 49 38 79 33 30 -5 40
-2 63 23 l28 30 -166 86 c-92 47 -168 86 -169 86 -2 0 -12 -10 -24 -23z m129
-118 c49 -31 50 -32 32 -50 -31 -30 -42 -26 -67 29 -14 28 -23 52 -21 52 3 0
28 -14 56 -31z"/>
<path d="M3917 3650 c-40 -32 -44 -78 -13 -146 30 -66 32 -80 10 -88 -24 -9
-44 12 -44 48 -1 22 -8 37 -27 50 -26 19 -26 19 -45 -3 -10 -13 -18 -39 -18
-58 0 -29 9 -44 45 -81 43 -42 47 -44 90 -39 49 5 82 28 97 67 7 18 3 42 -18
98 -19 52 -23 77 -16 84 17 17 42 1 42 -26 0 -16 12 -34 33 -50 29 -24 33 -24
45 -9 6 9 12 33 12 54 0 90 -124 153 -193 99z"/>
<path d="M8566 3508 c-47 -35 -86 -66 -86 -69 0 -4 9 -18 21 -33 20 -26 21
-26 51 -9 29 18 30 18 48 -7 10 -14 47 -62 82 -107 l64 -81 33 25 c18 14 30
31 27 39 -3 7 -37 54 -76 103 -38 49 -70 94 -70 100 0 6 9 16 20 23 11 7 20
17 20 23 -1 11 -35 55 -43 55 -3 0 -43 -28 -91 -62z"/>
<path d="M4095 3389 c-53 -72 -94 -137 -91 -144 8 -21 56 -49 65 -39 26 28
191 255 191 263 0 9 -52 51 -63 51 -3 0 -49 -59 -102 -131z"/>
<path d="M8374 3366 c-35 -15 -72 -58 -80 -93 -8 -31 13 -81 42 -100 17 -11
44 -14 101 -11 75 3 78 2 81 -20 4 -28 -23 -40 -50 -23 -17 11 -24 9 -47 -11
-14 -13 -28 -24 -30 -25 -9 -6 32 -42 60 -54 40 -16 94 0 137 42 43 43 44 95
3 141 -29 33 -31 33 -118 33 -81 0 -88 2 -88 20 0 15 7 20 30 21 31 0 95 32
95 46 0 13 -63 48 -85 48 -11 -1 -34 -7 -51 -14z"/>
<path d="M4305 3344 c-67 -35 -95 -82 -95 -159 0 -60 19 -103 63 -142 41 -36
87 -48 154 -40 35 4 54 13 84 43 21 21 39 43 39 50 0 7 -37 35 -82 64 l-82 52
-18 -22 c-26 -32 -23 -44 17 -66 41 -22 41 -38 -2 -42 -23 -2 -40 5 -64 26
-92 83 22 226 125 159 15 -10 29 -31 32 -47 4 -19 20 -38 45 -54 21 -14 41
-26 44 -26 3 0 5 18 5 40 0 44 -26 105 -56 131 -56 49 -150 64 -209 33z"/>
<path d="M8153 3235 c-18 -8 -33 -17 -33 -20 0 -4 21 -45 46 -92 25 -46 44
-86 42 -88 -2 -2 -44 21 -93 52 -50 30 -94 57 -100 59 -5 2 -25 -5 -43 -16
l-33 -20 54 -103 c30 -56 66 -126 81 -154 l26 -53 35 17 c19 9 35 21 35 27 0
5 -20 47 -45 93 -25 46 -42 83 -38 83 4 0 49 -25 100 -56 88 -54 94 -56 123
-44 17 7 33 16 36 21 6 10 -144 309 -155 309 -3 -1 -21 -7 -38 -15z"/>
<path d="M4639 3103 c-83 -176 -99 -213 -99 -221 0 -10 44 -32 64 -32 8 0 31
38 52 85 21 47 41 82 45 77 3 -4 12 -54 18 -112 13 -110 20 -125 62 -135 24
-6 28 0 97 143 40 82 72 154 72 159 0 5 -16 17 -36 26 l-35 17 -44 -92 c-24
-51 -46 -86 -49 -78 -2 8 -10 63 -16 122 -12 97 -15 107 -37 117 -44 20 -52
13 -94 -76z"/>
<path d="M7807 3068 c-16 -5 -26 -15 -24 -22 19 -47 130 -312 132 -314 2 -2
19 4 40 12 43 18 46 2 -33 191 -34 81 -64 141 -73 142 -8 1 -27 -3 -42 -9z"/>
<path d="M5217 2832 c-25 -28 -22 -84 6 -110 29 -27 57 -28 85 -2 29 27 29 83
2 110 -25 25 -72 26 -93 2z"/>
<path d="M5696 2823 c-8 -39 -46 -293 -46 -308 0 -7 17 -15 37 -18 41 -7 53 2
53 45 0 49 7 55 58 51 59 -5 92 12 114 57 43 86 8 158 -87 178 -126 27 -122
27 -129 -5z m107 -82 c13 -5 27 -17 31 -26 8 -23 -11 -55 -34 -55 -37 0 -50
12 -50 44 0 47 9 53 53 37z"/>
<path d="M6930 2823 c-52 -8 -96 -16 -98 -18 -2 -2 0 -19 4 -40 6 -35 8 -36
43 -33 l36 3 17 -125 c9 -69 17 -128 17 -132 1 -11 53 -10 70 1 13 8 12 26 -3
130 -10 67 -15 128 -12 136 3 8 17 15 31 15 20 0 25 5 25 24 0 33 -10 56 -24
55 -6 -1 -54 -8 -106 -16z"/>
<path d="M7411 2804 c-12 -15 -21 -32 -21 -39 0 -7 9 -24 21 -39 39 -50 119
-26 119 37 0 63 -80 90 -119 41z"/>
<path d="M5996 2768 c-12 -77 -28 -288 -23 -302 4 -10 19 -16 41 -16 39 0 46
14 46 93 0 26 3 47 8 47 4 0 21 -33 39 -73 l32 -72 45 -5 c52 -7 53 -4 12 78
l-22 44 33 33 c27 27 33 40 33 78 0 81 -38 107 -177 121 l-62 7 -5 -33z m144
-68 c11 -11 20 -24 20 -29 0 -18 -36 -49 -62 -55 -28 -6 -28 -6 -28 42 0 27 3
52 7 55 13 13 43 7 63 -13z"/>
<path d="M6737 2793 l-28 -4 7 -100 c4 -54 4 -99 1 -99 -3 0 -36 40 -74 90
-64 85 -70 90 -105 90 -20 0 -39 -3 -41 -7 -3 -6 18 -331 22 -340 0 -2 20 -3
42 -3 l41 0 -7 105 c-4 58 -5 105 -2 105 2 0 37 -43 77 -96 l72 -96 36 7 c21
4 38 8 39 8 0 1 -4 78 -10 172 -13 183 -10 177 -70 168z"/>
<path d="M6320 2605 l0 -175 39 0 38 0 6 83 c4 45 7 124 7 175 l0 92 -45 0
-45 0 0 -175z"/>
</g>
</svg>
