<?xml version="1.0" encoding="utf-8"?>
<!-- Generator: Adobe Illustrator 20.1.0, SVG Export Plug-In . SVG Version: 6.00 Build 0)  -->
<svg version="1.1" id="Layer_1" xmlns="http://www.w3.org/2000/svg" xmlns:xlink="http://www.w3.org/1999/xlink" x="0px" y="0px"
	 viewBox="0 0 160.1 113.9" style="enable-background:new 0 0 160.1 113.9;" xml:space="preserve">
<style type="text/css">
	.st0{fill:#FFFFFF;}
	.st1{fill:#CF0A2C;}
	.st2{fill:#002B49;}
</style>
<g>
	<g>
		<g>
			<path class="st0" d="M155.4,74.3l-10.2-17.3l10.2-17.1h-24c-4.7-14.4-15.4-26.2-29.1-32.4c-0.1-0.1-0.2-0.1-0.4-0.2
				c-0.5-0.2-1-0.4-1.5-0.6c-0.2-0.1-0.5-0.2-0.7-0.3c-0.5-0.2-1.1-0.4-1.6-0.6c-0.6-0.2-1.2-0.4-1.8-0.6C96,5.1,95.7,5,95.4,4.9
				c-0.5-0.1-1-0.3-1.5-0.4c-0.3-0.1-0.6-0.1-0.8-0.2c-0.6-0.1-1.2-0.3-1.8-0.4c-0.2,0-0.4-0.1-0.5-0.1c-0.8-0.2-1.7-0.3-2.5-0.4
				c-0.1,0-0.1,0-0.2,0c-0.8-0.1-1.6-0.2-2.3-0.3c-0.2,0-0.4,0-0.6-0.1c-0.7-0.1-1.4-0.1-2-0.2c-0.2,0-0.4,0-0.6,0
				c-0.8,0-1.7-0.1-2.5-0.1c0,0,0,0,0,0c0,0,0,0,0,0c-0.1,0-0.1,0-0.2,0c-0.8,0-1.5,0-2.2,0.1c-0.4,0-0.7,0-1.1,0.1
				c-0.4,0-0.8,0.1-1.3,0.1c-0.5,0-0.9,0.1-1.3,0.1c-0.2,0-0.4,0.1-0.7,0.1C52.3,5.7,35,20.3,28.6,39.8H4.7l10.2,17.1L4.7,74.3h24.2
				c0.4,1,0.7,2.1,1.2,3.1h-0.1C38,97.2,57.4,111.2,80,111.2c22.6,0,42-14,50.1-33.9H130c0.4-1,0.8-2,1.2-3.1H155.4z"/>
		</g>
		<g>
			<g>
				<path class="st0" d="M80,113.9c-23.2,0-43.8-13.9-52.6-35.5l-0.6-1.4H0l11.8-20L0,37.2h26.7C34,17.4,51.9,3.1,72.9,0.5l0.7-0.1
					c0.5-0.1,0.9-0.1,1.4-0.1c0.4,0,0.9-0.1,1.3-0.1l0.1,0c0.3,0,0.7,0,1-0.1C78.2,0,79,0,79.8,0L80,0l0,0c0.9,0,1.8,0,2.6,0.1
					l0.6,0c0.7,0,1.4,0.1,2.1,0.2L86,0.3c0.8,0.1,1.6,0.2,2.5,0.3l0.2,0c0.9,0.1,1.7,0.3,2.6,0.5l0.6,0.1c0.6,0.1,1.3,0.3,1.9,0.4
					c0.3,0.1,0.6,0.1,0.9,0.2c0.5,0.1,1,0.3,1.6,0.4l0.2,0.1c0.2,0.1,0.5,0.1,0.7,0.2C97.7,2.8,98.3,3,99,3.3
					c0.6,0.2,1.1,0.4,1.7,0.6l0.2,0.1c0.2,0.1,0.4,0.1,0.5,0.2c0.5,0.2,1.1,0.4,1.6,0.7l0.4,0.2c13.9,6.3,24.7,17.9,29.9,32.1h26.8
					l-11.9,19.7l11.8,20h-26.9l-0.6,1.4C123.8,99.9,103.2,113.9,80,113.9z M33.6,79C42.1,97,60,108.5,80,108.5
					c19.6,0,37.3-11.1,46-28.5h0l1.5-3.7c0.4-0.9,0.7-1.9,1.1-2.9l0.6-1.8h21.5L142,56.9l8.6-14.4h-21.2l-0.6-1.8
					c-4.5-13.6-14.6-24.9-27.6-30.8l-0.4-0.2c-0.5-0.2-0.9-0.4-1.4-0.6l-0.7-0.3c-0.5-0.2-1-0.4-1.5-0.6c-0.6-0.2-1.1-0.4-1.7-0.6
					c-0.2-0.1-0.4-0.1-0.6-0.2l-0.3-0.1c-0.5-0.1-0.9-0.3-1.4-0.4C93,7,92.7,6.9,92.4,6.8c-0.6-0.1-1.1-0.3-1.7-0.4l-0.5-0.1
					c-0.8-0.2-1.6-0.3-2.4-0.4l-0.2,0c-0.7-0.1-1.5-0.2-2.2-0.3l-0.6-0.1c-0.6-0.1-1.3-0.1-1.9-0.1l-0.5,0c-0.8,0-1.6-0.1-2.4-0.1
					l-0.2,0c-0.7,0-1.4,0-2.1,0.1c-0.3,0-0.6,0-0.9,0.1l-0.1,0c-0.4,0-0.8,0.1-1.2,0.1c-0.4,0-0.9,0.1-1.3,0.1l-0.6,0.1
					C54,8.2,37.3,21.9,31.2,40.7l-0.6,1.8H9.4L18,56.9L9.4,71.6h21.4l0.6,1.8c0.4,1.1,0.7,2,1.1,2.9L33.6,79z"/>
			</g>
		</g>
	</g>
	<g>
		<g>
			<path class="st1" d="M75,24.3L55.9,83.2h13.4l2.2-8.5h16.9l2.3,8.5h13.5L85.6,24.3H75z M74.5,62.7l5.2-20.5l5.4,20.5H74.5z"/>
			<path class="st2" d="M51.1,39.8l8.1,21l6.8-21H51.1z M50.7,62.4l-3.9-12.1L43,62.4H50.7z M40.8,69.4l-1.5,4.9h15.3L53,69.4H40.8z
				 M4.7,39.8l10.2,17.1L4.7,74.3h25l13.6-34.4H4.7z M94.1,39.8l6.8,21l8.1-21H94.1z M117,62.4l-3.8-12.1l-3.9,12.1H117z
				 M107.1,69.4l-1.6,4.9h15.3l-1.5-4.9H107.1z M116.7,39.8l13.6,34.4h25l-10.2-17.3l10.2-17.1H116.7z"/>
			<g>
				<path class="st2" d="M83.4,11.7c0.4,0,0.6-0.1,0.7-0.3l-0.8-1c-0.2,0.1-0.5,0.3-0.5,0.6C82.7,11.4,83,11.7,83.4,11.7z
					 M93.4,11.1c0.1,0,0.3-0.1,0.3-0.3c0.1-0.2,0-0.3-0.1-0.4c-0.1-0.1-0.2-0.1-0.4-0.2l-0.5-0.1l-0.2,0.8l0.5,0.1
					C93.1,11.1,93.2,11.1,93.4,11.1z M52.6,19.5l-1.7-1.2l0.7,1.9L52.6,19.5z M47.8,23.6l-1.8-0.9l1,1.8L47.8,23.6z M67.6,10.2
					l-0.1,2.1l1.2-0.3L67.6,10.2z M98.7,12.7l-1.4,1.6l1.1,0.5L98.7,12.7z M80,109.3c-21.5,0-40.1-13.2-48-31.9h-2.1
					C38,97.2,57.4,111.2,80,111.2c22.6,0,42-14,50.1-33.9H128C120.1,96.1,101.6,109.3,80,109.3z M80,16.7c14.9,0,27.9,8.2,34.8,20.3
					h15.5C122.4,16.9,102.8,2.7,80,2.7C57.2,2.7,37.7,16.9,29.7,37h15.5C52.2,24.9,65.2,16.7,80,16.7z M118.9,26.4
					c0.5,0.7,0.7,1.2,0.7,1.6c0,0.6-0.3,1.1-0.8,1.5c-0.3,0.3-0.7,0.4-1,0.4c-0.4,0-0.7-0.1-0.9-0.2l-1,2.2l-0.9-1.2l1.3-2.8
					l0.1,0.2c0.2,0.3,0.4,0.5,0.6,0.6c0.2,0.1,0.5,0,0.7-0.2c0.2-0.2,0.3-0.4,0.3-0.7c0-0.2-0.1-0.4-0.2-0.6l-0.3-0.4l-3.5,2.7
					l-0.9-1.2l4.5-3.4L118.9,26.4z M116.6,23.6l-0.9,0.9l-1.2-1.3l-0.6,0.6L115,25l-0.9,0.9l-1.2-1.2l-0.7,0.7l1.2,1.3l-0.9,0.9
					l-2.2-2.3l4.1-3.9L116.6,23.6z M110.2,17.6l-0.5,4l2.2-2.7l1.1,0.9l-3.6,4.4l-1-0.8l0.5-4l-2.2,2.7l-1.1-0.9l3.6-4.4L110.2,17.6
					z M103.5,13l1.1,0.7l0,4.1l1.8-3l1.2,0.7l-3,4.8l-1.1-0.7l-0.1-4l-1.8,2.9l-1.2-0.7L103.5,13z M100,11.4l-0.3,6.1l-1.5-0.6
					l0.1-0.9l-1.8-0.8L96,15.8l-1.4-0.6l4.3-4.3L100,11.4z M91.7,8.4l2,0.6c0.6,0.2,1,0.4,1.2,0.8c0.2,0.3,0.3,0.7,0.2,1.2
					c-0.1,0.4-0.4,0.8-1,0.9c0.8,0.6,0.6,1.3,0.5,1.5c-0.1,0.4-0.4,0.9-0.8,1c-0.6,0.3-1,0.2-1.9-0.1l-1.8-0.5L91.7,8.4z M82.6,9.6
					c-0.4-0.4-0.5-0.9-0.4-1.3C82.2,7.5,83,7,83.8,7c0.9,0.1,1.4,0.8,1.4,1.5c-0.1,0.7-0.6,1.1-0.9,1.2l0.6,0.7l0.5-0.8l1.3,0.1
					l-1.1,1.6l0.8,0.9l-0.9,0.8l-0.6-0.8c-0.2,0.2-0.7,0.7-1.6,0.6c-1.3-0.1-2-0.9-1.9-1.8C81.4,10.2,82.1,9.9,82.6,9.6z M73.9,7.2
					c1.3-0.2,2.6,0.6,3,1.7l-1.6,0.2c-0.1-0.1-0.2-0.2-0.3-0.3c-0.3-0.2-0.6-0.3-1-0.2c-0.7,0.1-1.5,0.7-1.3,1.8
					c0.1,1.2,1,1.6,1.7,1.5c0.4,0,0.6-0.2,0.9-0.4c0.2-0.2,0.3-0.4,0.4-0.7L74,10.9l-0.1-1.1l3.3-0.4c0.1,0.4,0.1,1.1-0.1,1.6
					c-0.4,1.3-1.6,1.9-2.5,2c-1.7,0.2-3.1-1-3.3-2.6C71.1,8.8,72.3,7.4,73.9,7.2z M66.7,8.7l1.2-0.3l3.5,4.9l-1.5,0.4L69.4,13
					l-1.9,0.5l0,0.9l-1.5,0.4L66.7,8.7z M61.9,10.3l1.6,4.1l1.6-0.6l0.5,1.2l-2.9,1.1l-2.1-5.3L61.9,10.3z M59,11.5l0.6,1.1
					l-1.5,0.7l0.4,0.9l1.4-0.7l0.6,1.1l-1.4,0.7l1,1.9l-1.3,0.7l-2.5-5.1L59,11.5z M50.4,16.5l5.2,3.2l-1.3,1l-0.7-0.5L52,21.4
					l0.3,0.8l-1.3,0.9l-1.6-5.9L50.4,16.5z M45.2,21l5.5,2.5l-1.1,1.1l-0.8-0.4l-1.4,1.4l0.4,0.8l-1.1,1.1l-2.4-5.6L45.2,21z
					 M44,31.1L43,32.3l-3.2-5.2l0.8-1l5.8,1.7l-1,1.3l-0.8-0.3l-1.2,1.6L44,31.1z M80,97.1c-14.7,0-27.5-8-34.5-19.8h-2.3
					c7.2,13,21,21.8,36.8,21.8c15.8,0,29.6-8.8,36.8-21.8h-2.3C107.6,89.2,94.7,97.1,80,97.1z M84,8.5c0-0.2-0.1-0.4-0.3-0.4l0,0
					c-0.2,0-0.3,0.1-0.4,0.3c0,0.3,0.1,0.5,0.3,0.6C83.8,8.9,84,8.7,84,8.5z M93,13.3c0.2,0,0.3-0.1,0.4-0.4c0.1-0.2,0-0.4-0.1-0.5
					c-0.1-0.1-0.3-0.2-0.4-0.2l-0.7-0.2l-0.3,1l0.7,0.2C92.6,13.3,92.8,13.3,93,13.3z M42.8,29.4l0.8-1l-2-0.7L42.8,29.4z"/>
			</g>
			<g>
				<path class="st1" d="M44.3,84.7l0.9,1.1c0.3,0.4,0.9,1.1,0.6,2c-0.1,0.5-0.4,0.9-0.8,1.2c-0.9,0.8-2.1,1-3.2-0.3l-1-1.2
					L44.3,84.7z M42.5,87.8l0.3,0.4c0.5,0.6,1.1,0.4,1.6,0c0.2-0.2,0.4-0.4,0.5-0.7c0.1-0.2,0.1-0.5-0.2-0.9l-0.3-0.4L42.5,87.8z"/>
				<path class="st1" d="M47.4,88.2l1.8,1.8l-0.7,0.7l-1-1L47,90.2l0.9,0.9l-0.7,0.7l-0.9-0.9l-0.5,0.5l1,1L46,93.1l-1.8-1.8
					L47.4,88.2z"/>
				<path class="st1" d="M48.5,93.3c-0.3,0.4-0.1,0.7,0,0.8c0.2,0.2,0.5,0.1,0.6,0c0.2-0.2,0.1-0.4-0.3-1c-0.2-0.3-0.5-1,0-1.7
					c0.6-0.7,1.5-0.5,2.1,0c0.5,0.4,0.9,1.2,0.2,2l-0.9-0.7c0.1-0.1,0.2-0.4,0-0.6c-0.1-0.1-0.4-0.1-0.5,0c-0.1,0.2-0.1,0.3,0.3,1.1
					c0.4,0.8,0.3,1.2,0,1.6c-0.5,0.5-1.2,0.8-2.1,0.1c-0.9-0.8-0.8-1.6-0.2-2.2L48.5,93.3z"/>
				<path class="st1" d="M52.5,92.8l0.9,0.7L50.8,97l-0.9-0.7L52.5,92.8z"/>
				<path class="st1" d="M56,97c0-0.1,0-0.3,0-0.4c-0.1-0.2-0.2-0.5-0.5-0.6c-0.5-0.3-1.2-0.3-1.7,0.4c-0.5,0.8-0.1,1.5,0.3,1.8
					c0.2,0.1,0.5,0.2,0.7,0.2c0.2,0,0.4-0.1,0.6-0.2l-1.1-0.7l0.5-0.8l2.2,1.4c-0.1,0.3-0.5,0.7-0.8,1c-0.9,0.6-1.9,0.4-2.5,0
					c-1.1-0.7-1.4-2.1-0.8-3.2c0.7-1.1,2.1-1.4,3.2-0.7c0.9,0.6,1.3,1.6,1,2.5L56,97z"/>
				<path class="st1" d="M59.9,100.4L61,98l1,0.5l-1.9,4l-0.9-0.4l-0.4-3.1l-1.1,2.4l-1-0.5l1.9-4l0.9,0.4L59.9,100.4z"/>
				<path class="st1" d="M66.1,101.3c0.5,0.1,0.7,0.7,0.6,1.2c-0.2,0.5-0.7,0.8-1.1,0.6c-0.5-0.2-0.7-0.7-0.6-1.2
					C65.1,101.4,65.6,101.1,66.1,101.3L66.1,101.3z"/>
				<path class="st1" d="M72.6,101.5c0.8,0.1,1.1,0.3,1.3,0.5c0.3,0.3,0.4,0.8,0.3,1.2c-0.1,0.4-0.3,0.9-0.6,1.1
					c-0.3,0.2-0.7,0.3-1.3,0.2l-0.4-0.1l-0.2,1.4l-1.1-0.2l0.7-4.4L72.6,101.5z M71.9,103.5l0.4,0.1c0.1,0,0.3,0,0.4,0
					c0.2,0,0.3-0.2,0.3-0.4c0-0.3-0.1-0.4-0.2-0.5c-0.1-0.1-0.3-0.1-0.4-0.1l-0.4-0.1L71.9,103.5z"/>
				<path class="st1" d="M75,101.9l1.4,0.1c0.7,0.1,1.1,0.2,1.3,0.4c0.3,0.3,0.5,0.8,0.4,1.2c0,0.3-0.1,0.6-0.3,0.8
					c-0.2,0.2-0.4,0.4-0.6,0.4l0.8,1.7l-1.2-0.1l-1-2.2l0.2,0c0.3,0,0.5,0,0.7-0.1c0.1-0.1,0.3-0.3,0.3-0.5c0-0.2-0.1-0.4-0.2-0.5
					c-0.1-0.1-0.3-0.1-0.4-0.2l-0.4,0l-0.3,3.4l-1.1-0.1L75,101.9z"/>
				<path class="st1" d="M79.1,102.1l1.1,0l-0.1,4.4l-1.1,0L79.1,102.1z"/>
				<path class="st1" d="M84.1,104.7l-0.2-2.7l1.1-0.1l0.3,4.4l-1,0.1l-1.9-2.5l0.2,2.7l-1.1,0.1l-0.3-4.4l1-0.1L84.1,104.7z"/>
				<path class="st1" d="M86.5,102.7l-0.9,0.1l-0.2-1l2.8-0.4l0.2,1l-0.9,0.1l0.5,3.4l-1.1,0.2L86.5,102.7z"/>
				<path class="st1" d="M93.1,101.5c0.5-0.1,1,0.2,1.1,0.6c0.1,0.5-0.1,1-0.6,1.1c-0.5,0.1-1-0.2-1.1-0.6
					C92.3,102.2,92.6,101.7,93.1,101.5L93.1,101.5z"/>
				<path class="st1" d="M97.3,98.7l1-0.4l1.7,4.1l-1,0.4L97.3,98.7z"/>
				<path class="st1" d="M102.8,99.1l-1.3-2.4l1-0.5l2,3.9l-0.9,0.5L101,99l1.3,2.4l-1,0.5l-2-3.9l0.9-0.5L102.8,99.1z"/>
				<path class="st1" d="M105.7,97.7c0.3,0.4,0.6,0.3,0.7,0.3c0.2-0.1,0.2-0.4,0.1-0.6c-0.1-0.2-0.3-0.2-1,0
					c-0.3,0.1-1.1,0.2-1.6-0.5c-0.5-0.7-0.1-1.6,0.6-2c0.5-0.3,1.4-0.5,2,0.4l-0.9,0.6c-0.1-0.1-0.3-0.3-0.6-0.1
					c-0.2,0.1-0.3,0.3-0.1,0.5c0.1,0.2,0.2,0.2,1.1,0c0.9-0.1,1.3,0.1,1.6,0.5c0.4,0.6,0.5,1.4-0.5,2c-1,0.6-1.7,0.3-2.2-0.4
					L105.7,97.7z"/>
				<path class="st1" d="M107.3,94.2l-0.7,0.5l-0.6-0.8l2.3-1.7l0.6,0.8l-0.7,0.5l2.1,2.7l-0.9,0.7L107.3,94.2z"/>
				<path class="st1" d="M112.1,94.8l-0.9,0.8l-1.6-4.5l0.7-0.6l4.2,2.2l-0.9,0.8l-0.6-0.3l-1.2,1L112.1,94.8z M110.8,91.8l0.7,1.5
					l0.7-0.6L110.8,91.8z"/>
				<path class="st1" d="M112,88.9l0.8-0.8l2.5,2.4l0.9-0.9l0.7,0.7l-1.7,1.8L112,88.9z"/>
				<path class="st1" d="M114.1,86.6l0.7-0.9l2.6,2.2l0.8-1l0.8,0.6l-1.6,1.9L114.1,86.6z"/>
			</g>
		</g>
	</g>
</g>
</svg>
