<?xml version="1.0" encoding="UTF-8" standalone="no"?>
<svg
   xmlns:dc="http://purl.org/dc/elements/1.1/"
   xmlns:cc="http://creativecommons.org/ns#"
   xmlns:rdf="http://www.w3.org/1999/02/22-rdf-syntax-ns#"
   xmlns:svg="http://www.w3.org/2000/svg"
   xmlns="http://www.w3.org/2000/svg"
   viewBox="0 0 1800 1800"
   height="1800"
   width="1800"
   xml:space="preserve"
   version="1.1"
   id="svg2"><metadata
     id="metadata8"><rdf:RDF><cc:Work
         rdf:about=""><dc:format>image/svg+xml</dc:format><dc:type
           rdf:resource="http://purl.org/dc/dcmitype/StillImage" /></cc:Work></rdf:RDF></metadata><defs
     id="defs6" /><g
     transform="matrix(1.25,0,0,-1.25,0,1800)"
     id="g10"><g
       transform="scale(0.1,0.1)"
       id="g12"><path
         id="path14"
         style="fill:#ffffff;fill-opacity:1;fill-rule:nonzero;stroke:none"
         d="m 7199.6,585.801 c 3636,0 6583.5,2958.439 6583.5,6607.799 0,3649.2 -2947.5,6607.5 -6583.5,6607.5 -3636.16,0 -6584.01,-2958.3 -6584.01,-6607.5 0,-3649.36 2947.85,-6607.799 6584.01,-6607.799" /><path
         id="path16"
         style="fill:#00447c;fill-opacity:1;fill-rule:nonzero;stroke:none"
         d="M 7199.6,820.195 C 3869.93,820.195 1130.65,3405.8 869.969,6681.57 l 1234.581,0 C 2361.41,4087.59 4548.39,2054.95 7199.6,2054.95 c 2651.13,0 4838,2032.64 5094.9,4626.62 l 1234.2,0 C 13268.1,3405.8 10529,820.195 7199.6,820.195 m 0,11270.005 c 2690.02,0 4878.6,-2196.59 4878.6,-4896.61 0,-2700.21 -2188.58,-4897 -4878.6,-4897 -2690.19,0 -4878.79,2196.79 -4878.79,4897 0,2700.02 2188.6,4896.61 4878.79,4896.61 m 0,1710.5 c -3630.43,0 -6584.01,-2963.9 -6584.01,-6607.11 0,-3643.32 2953.58,-6607.375 6584.01,-6607.375 3630.2,0 6583.5,2964.055 6583.5,6607.375 0,3643.21 -2953.3,6607.11 -6583.5,6607.11" /><path
         id="path18"
         style="fill:#ffffff;fill-opacity:1;fill-rule:nonzero;stroke:none"
         d="m 1367.54,9297.51 188.82,-55.37 -119.19,-406.7 153.7,-45.06 111.45,380.06 183.98,-53.96 -111.45,-380.07 328,-96.18 -79.14,-269.89 -854.5,250.53" /><path
         id="path20"
         style="fill:#ffffff;fill-opacity:1;fill-rule:nonzero;stroke:none"
         d="m 1590.34,9831.5 130.99,249 590.85,-310.66 160.31,304.96 198.86,-104.61 -291.3,-553.97" /><path
         id="path22"
         style="fill:#ffffff;fill-opacity:1;fill-rule:nonzero;stroke:none"
         d="m 2671.7,11039.1 177.47,-276.9 123.77,146.5 -301.24,130.4 z m -296.4,42.3 206.87,244.9 895.71,-320.4 -195.43,-231.4 -119.72,49.9 -200.35,-237.2 69.27,-109.6 -195.42,-231.5" /><path
         id="path24"
         style="fill:#ffffff;fill-opacity:1;fill-rule:nonzero;stroke:none"
         d="m 4227.19,11674.6 c -14.53,-48.4 -43.57,-138.8 -164.54,-227.8 -53.86,-39.7 -106.16,-62.4 -153.96,-74.1 -88.29,-22.7 -308.8,-36.1 -473.42,187.5 -151.85,206.4 -155.63,490.4 94.37,674.5 107.75,79.3 246.31,123.2 369.01,105.5 73.43,-10.3 116.03,-38.4 152.92,-63 l -161.37,-206.6 c -21.56,18.7 -44.53,39.3 -83.35,45.2 -37.06,5.7 -85.66,-5 -133.45,-40.2 -53.89,-39.7 -76.5,-87.7 -83.2,-125.5 -17.7,-93 45.16,-178.3 69.1,-210.9 31.43,-42.6 85.39,-109.6 174.31,-124 79.14,-13.8 132.74,24.1 157.22,42.1 20.25,14.9 70.59,55.1 79.22,117.9 4.41,34.6 -6.77,56.1 -18.13,82.2 l -133.2,-98 -106.25,144.3 329.33,242.5 291.82,-396.5 -169.73,-124.9" /><path
         id="path26"
         style="fill:#ffffff;fill-opacity:1;fill-rule:nonzero;stroke:none"
         d="m 5535.4,12529.3 c 12.93,-46.2 61.88,-99.4 139.7,-77.7 41.28,11.6 68.48,36.3 86.09,53 -87.76,60.6 -111.17,79 -190.77,143.3 -23.05,-30.1 -49.64,-66.3 -35.02,-118.6 m 98.59,468 c -0.62,2.4 -13.92,49.8 -73.51,33.2 -32.83,-9.2 -50.61,-29.9 -41.46,-62.7 8.19,-29.2 38.21,-52.3 63.3,-71.5 24.38,25.2 62.93,60.8 51.67,101 m 545.96,-569.8 c -31.85,-12.8 -63.65,-25.6 -96.47,-34.8 -94.82,-26.5 -129.24,-11.2 -167.53,8.3 -30.29,-32.1 -86.89,-92.5 -210.92,-127.1 -94.8,-26.5 -183.99,-26.5 -274.83,26.8 -70.32,40.6 -102.64,90.5 -122.36,161 -25.54,91.2 -7.49,148.7 26.15,206.6 28.08,49.8 54.92,75.7 99.55,113 -30.45,24.3 -78.96,61.9 -101.32,142.1 -11.62,41.4 -37.4,190.2 189.97,253.7 26.76,7.5 131.34,36.7 212.85,-11.3 33.02,-19.6 64.27,-51.6 80.91,-111.1 15.92,-57.2 10.39,-112.5 -24.11,-171.9 -26.23,-46.7 -55.02,-70.5 -83.73,-94.2 73.33,-51.6 84.6,-59 137.33,-92.7 5.27,51.3 5.91,63.2 0.44,115.5 l 202.65,-16.9 c -6.51,-131.5 -11.63,-155.2 -29.85,-216.7 25.8,-3.3 47.98,-7.6 78.34,0.9 12.17,3.4 25.19,8.4 36.72,14.2" /><path
         id="path28"
         style="fill:#ffffff;fill-opacity:1;fill-rule:nonzero;stroke:none"
         d="m 7564.22,13201.1 -12.14,-151 154.76,-12.5 c 26.4,-2.2 91.88,-7.4 97.88,66.8 5.89,73 -54.32,80.4 -79.4,83.7 l -161.1,13 z m -28.52,-337.2 -13.9,-172.4 176.14,-14.3 c 25.25,-0.7 51.85,-1.6 75.19,20.6 14.95,12.7 25.42,33.4 27.28,56 6.77,83.1 -68.49,93 -94.8,96.4 l -169.91,13.7 z m -236.98,547.4 526.07,-42.5 c 55.2,-7 158.11,-19.1 219.55,-90 37.23,-41 52.55,-101.8 47.98,-158.4 -5.3,-65.4 -37.5,-118.6 -75.54,-150.9 -25.88,-22.1 -49.38,-30.3 -79.4,-41.8 35.64,-13 67.7,-24.4 100.08,-62.6 46.4,-53.1 50.53,-111.7 46.93,-155.8 -5.37,-66.7 -31.16,-134.3 -80.1,-175.9 -72.2,-62.5 -164.26,-57.7 -233.71,-54.6 l -543.68,44" /><path
         id="path30"
         style="fill:#ffffff;fill-opacity:1;fill-rule:nonzero;stroke:none"
         d="m 9036.69,12853.7 -189.97,-268.5 182.31,-59.6 7.66,328.1 z m -72.35,290.5 304.67,-99.6 39.87,-950.3 -287.84,94.1 1.23,129.7 -295.09,96.4 -75.62,-105.4 -287.86,94.1" /><path
         id="path32"
         style="fill:#ffffff;fill-opacity:1;fill-rule:nonzero;stroke:none"
         d="m 10100.9,12691.7 253.6,-158.4 -8.4,-392 c -7,-104.2 -9.3,-134 -23.5,-242.6 39.7,77.8 48.6,94.6 99.3,180.4 l 185.2,296.5 223.6,-139.8 -472,-755.5 -256.8,160.5 10.1,356.7 c 3,102.3 4.8,133.9 19.5,264.5 -37.5,-71.8 -47.1,-89.6 -88.8,-158.8 l -191.2,-306 -222.53,139.1" /><path
         id="path34"
         style="fill:#ffffff;fill-opacity:1;fill-rule:nonzero;stroke:none"
         d="m 11381.2,11786.1 206.1,-216.8 -106.1,-377.5 c -32.8,-99.2 -42.4,-127.5 -83.5,-229.1 58,65.5 70.8,79.4 141.3,149.9 l 253.4,240.8 181.7,-191.1 -645.8,-613.7 -208.6,219.5 98.8,342.9 c 28.4,98.3 38.1,128.4 85,251.3 -54.2,-60.2 -68,-75 -125.7,-131.6 l -261.6,-248.6 -180.8,190.3" /><path
         id="path36"
         style="fill:#ffffff;fill-opacity:1;fill-rule:nonzero;stroke:none"
         d="m 12382.5,10600 352.1,-611.23 -169.4,-97.68 -211.1,366.31 -114.8,-66.1 197.2,-342.28 -167.4,-96.39 -197.1,342.27 -153.1,-88.2 229.9,-399.11 -167.2,-96.39 -371.1,644.1" /><path
         id="path38"
         style="fill:#ffffff;fill-opacity:1;fill-rule:nonzero;stroke:none"
         d="m 12914.6,9035.67 -199.5,-59.91 33.7,-112.45 c 13.5,-44.72 41.7,-129.85 138.4,-100.8 98,29.41 74.9,114.8 60.9,161.93 l -33.5,111.23 z m 97.6,324.56 127.8,-425.57 c 24.3,-80.99 42.7,-159.82 36.6,-218.36 -14.2,-128.17 -120.1,-196.88 -202.3,-221.57 -32.7,-9.82 -110,-29.06 -191.3,13.73 -46.5,22.93 -70.7,55.23 -98.4,90.41 l -282.1,-311.46 -90.1,299.83 251.4,256.09 -24,79.79 -301,-90.45 -81.4,270.83" /><path
         id="path40"
         style="fill:#ef3e33;fill-opacity:1;fill-rule:nonzero;stroke:none"
         d="m 2223.98,4798.44 147.89,-245.69 -211.28,-218.58 c -46.56,-44.89 -57.57,-54.58 -102.28,-92.08 73.15,30.46 88.91,35.74 148.77,55.02 l 270.96,79.22 148.33,-246.47 -544.83,-328.18 -98.76,164 314.88,189.7 c 40.59,23.42 51.06,28.69 99.21,53.53 -46.48,-15.41 -55.11,-18.49 -100.97,-31.43 l -377.56,-104.67 -76.94,127.82 255.81,268.58 c 37.07,38.03 37.42,39.26 86.63,86.8 -32.58,-22.8 -40.58,-28.7 -71.49,-47.28 l -334.85,-201.75 -98.34,163.29" /><path
         id="path42"
         style="fill:#ef3e33;fill-opacity:1;fill-rule:nonzero;stroke:none"
         d="m 2933.59,3477.55 -213.21,-99.02 91.64,-101.42 121.57,200.44 z m 58.72,205.38 152.99,-169.46 -313.83,-602.39 -144.55,160.13 46.93,79.84 -148.16,164.09 -84.32,-38.48 -144.64,160.14" /><path
         id="path44"
         style="fill:#ef3e33;fill-opacity:1;fill-rule:nonzero;stroke:none"
         d="m 3558.78,3105.01 168.49,-130.37 -34.16,-277.74 c -12.5,-73.41 -16.29,-94.45 -34.25,-170.6 33.81,52.47 41.38,63.74 83.46,121.12 l 152.82,197.37 148.59,-114.96 -389.35,-503.09 -170.69,132.04 32.92,252.56 c 9.42,72.45 13.03,94.72 32.83,186.45 -31.69,-48.33 -39.78,-60.31 -74.39,-106.43 l -157.73,-203.79 -147.99,114.44" /><path
         id="path46"
         style="fill:#ef3e33;fill-opacity:1;fill-rule:nonzero;stroke:none"
         d="m 4409.85,2498.39 178.96,-92.07 -181.96,-353.7 c -12.41,-24.04 -24.37,-49.31 -14.25,-78.88 6.5,-22.63 25.17,-39.34 45.95,-50 27.98,-14.43 51.76,-13.47 67.07,-9.16 31.09,9.34 44.72,33.81 57.04,57.84 l 181.96,353.61 179.85,-92.51 -155.19,-301.51 c -33.38,-64.96 -76.68,-149.12 -175.62,-178.35 -60.57,-17.51 -140.94,-12.67 -228.09,32.13 -83.1,42.79 -141.03,107.04 -161.89,168.59 -27.91,83.27 3.88,147.1 32.84,207.21" /><path
         id="path48"
         style="fill:#ef3e33;fill-opacity:1;fill-rule:nonzero;stroke:none"
         d="m 5810.75,1923.47 -41.38,-134.33 -288.38,89.26 -33.71,-109.42 269.45,-83.36 -40.32,-130.81 -269.54,83.36 -71.92,-233.37 -191.37,59.16 187.4,607.94" /><path
         id="path50"
         style="fill:#ef3e33;fill-opacity:1;fill-rule:nonzero;stroke:none"
         d="m 6388.51,1630.78 -100.03,-212.51 135.23,-19.28 -35.2,231.79 z m -86.71,195.42 226.05,-32.22 145.6,-663.56 -213.56,30.36 -15.25,91.38 -218.91,31.16 -39.95,-83.63 -213.58,30.37" /><path
         id="path52"
         style="fill:#ef3e33;fill-opacity:1;fill-rule:nonzero;stroke:none"
         d="m 7721.26,1296.26 c -15.21,-31.16 -29.58,-60.47 -59.06,-92.08 -62.69,-66.03 -152.39,-98.68 -243.14,-101.58 -226.33,-7.32 -334.25,160.56 -339.45,323.68 -5.45,171.13 103,348.69 317.69,355.64 96.07,3.08 188.83,-28.26 257.5,-94.54 27.82,-27.12 41.12,-48.34 55.38,-73.07 l -165.33,-89.26 c -17.34,37.33 -50.07,103.96 -134.51,101.24 -44.01,-1.42 -71.13,-23.07 -84.25,-36.97 -46.12,-47.45 -43.76,-119.55 -42.95,-144.82 2.99,-94.54 40.93,-182.65 139.7,-179.49 93.4,2.99 118.58,86.8 125.09,108.62" /><path
         id="path54"
         style="fill:#ef3e33;fill-opacity:1;fill-rule:nonzero;stroke:none"
         d="m 8043.72,1812.91 512.24,103.08 31.09,-154.49 -157.85,-31.78 94.37,-469.82 -196.58,-39.52 -94.44,469.73 -157.76,-31.69" /><path
         id="path56"
         style="fill:#ef3e33;fill-opacity:1;fill-rule:nonzero;stroke:none"
         d="m 8899.37,2012.82 188.22,71.48 141.36,-371.83 c 9.6,-25.27 20.35,-51.07 49.03,-63.29 21.23,-10.32 46.22,-7.58 68.04,0.7 29.41,11.17 44.55,29.48 51.69,43.75 13.81,29.31 4.75,55.8 -4.94,81.07 l -141.29,371.84 189.09,71.83 120.52,-317 c 25.98,-68.31 59.59,-156.87 15.16,-250 -27.5,-56.69 -84.89,-113.21 -176.43,-147.97 -87.41,-33.2 -173.95,-33.29 -233.71,-7.75 -80.65,35.03 -106.79,101.31 -132.15,163.12" /><path
         id="path58"
         style="fill:#ef3e33;fill-opacity:1;fill-rule:nonzero;stroke:none"
         d="m 10071.3,2400.77 77,-127.29 71.4,43.22 c 28.5,17.25 82.2,51.76 44.8,113.47 -37.7,62.5 -92.5,31.52 -122.5,13.38 l -70.7,-42.78 z m -241.28,10.12 270.68,163.65 c 51.5,31.16 102.6,57.74 144,63.91 91,12.85 157.3,-48.24 188.9,-100.71 12.6,-20.86 39.7,-70.86 24.8,-134.68 -7.6,-36.19 -25.6,-58.63 -44.8,-83.98 l 265.1,-139.97 -190.7,-115.32 -221.4,128.52 -50.8,-30.72 116.2,-192.17 -172.3,-104.14" /><path
         id="path60"
         style="fill:#ef3e33;fill-opacity:1;fill-rule:nonzero;stroke:none"
         d="m 10670.1,2973.4 154.9,128.79 406.9,-489.44 -154.9,-128.79" /><path
         id="path62"
         style="fill:#ef3e33;fill-opacity:1;fill-rule:nonzero;stroke:none"
         d="m 11160.2,3405.1 141.2,159.42 275,-52.47 c 72.6,-17.33 93.3,-22.53 168.1,-45.41 -50.2,37.15 -60.9,45.41 -115.4,91.19 l -187.2,165.41 124.5,140.59 476.9,-421.48 -143,-161.46 -249.9,49.48 c -71.8,14.26 -93.8,19.28 -184,45.16 46.1,-34.86 57.6,-43.75 101.4,-81.25 l 193.2,-170.78 -123.9,-139.88" /><path
         id="path64"
         style="fill:#ef3e33;fill-opacity:1;fill-rule:nonzero;stroke:none"
         d="m 12566.6,4304.32 c 3.7,-35.82 9.4,-103.25 -45.8,-194.98 -24.5,-40.75 -52.6,-70.07 -80.9,-90.75 -51.9,-39.09 -193.4,-108.11 -363.1,-5.9 -156.6,94.36 -237.1,280.36 -123.1,469.9 49.2,81.61 128.2,148.41 213.9,170.26 51.1,13.29 86.9,6.31 117.9,0.26 L 12236.1,4473 c -19.3,6.43 -40.2,13.71 -67.4,7.04 -25.9,-6.42 -54.9,-26.76 -76.7,-62.95 -24.6,-40.84 -26.3,-78.61 -20.3,-105.38 13.9,-66 78.7,-105.09 103.4,-119.98 32.4,-19.53 86.2,-48.77 148.8,-33.98 55.9,12.52 80.7,52.04 91.9,70.53 9.3,15.4 31.4,55.63 19.8,99.38 -6.7,23.95 -19.9,35.04 -34.6,49.12 l -60.7,-100.89 -109.5,66.02 150.1,249.57 300.9,-181.34 -77.3,-128.6" /><path
         id="path66"
         style="fill:#00447c;fill-opacity:1;fill-rule:nonzero;stroke:none"
         d="m 4986.19,4906.19 -215.77,704.94 -212.77,-704.94 428.54,0 z m -492.8,1333.83 609.35,0 687.59,-2091.51 -571.3,0 -75.45,233.99 -737.52,0 -78.78,-233.99 -562.43,0" /><path
         id="path68"
         style="fill:#00447c;fill-opacity:1;fill-rule:nonzero;stroke:none"
         d="m 9799.66,4906.19 -215.86,704.94 -212.68,-704.94 428.54,0 z m -492.62,1333.83 609.16,0 687.7,-2091.51 -571.3,0 -75.56,233.99 -737.51,0 -78.7,-233.99 -562.67,0" /><path
         id="path70"
         style="fill:#ef3e33;fill-opacity:1;fill-rule:nonzero;stroke:none"
         d="M 6083.21,8425.8 C 5669.1,8519.98 5230.2,7896.74 5230.2,7896.74 5041.28,7601.66 4873.15,7375.51 4684.85,7163.45 4159.23,6667.05 3471.36,6864.59 3471.36,6864.59 l 72.7,-252.56 17,-3.44 c 486.37,-87.94 942.36,22.54 1252.41,352.74 193.92,217.96 366.02,448.78 558.46,749.49 401.77,553 652.2,456.26 784.51,475.54" /><path
         id="path72"
         style="fill:#ef3e33;fill-opacity:1;fill-rule:nonzero;stroke:none"
         d="m 5913.66,8926.25 c -523.95,20.6 -874.67,-537.43 -874.67,-537.43 C 4849.9,8093.66 4676.57,7907.57 4488.11,7695.68 3965.03,7199.37 3316.25,7400.25 3316.25,7400.25 l 83.18,-285.83 c 0,0 694.47,-229.94 1256.28,393.93 200.01,222.27 372.2,456.17 565.86,757.94 358.1,474.3 649.21,440.32 758.99,449.92" /><path
         id="path74"
         style="fill:#ef3e33;fill-opacity:1;fill-rule:nonzero;stroke:none"
         d="M 5395.52,10553 C 5267.18,10526.7 4555.18,9917.2 4508.36,9849.06 4371.73,9650.29 4240.74,9482.15 4098.14,9321.77 3646.37,8777.91 2860.78,8984.7 2860.78,8984.7 l 72.02,-250.54 c 0,0 820.26,-274.03 1309.44,380.29 115.06,153.8 245.42,291.48 364.44,458.82 l 58.72,-242.8 c -152.56,-227.9 -295.87,-414.7 -452.47,-591.11 -508.29,-492.63 -1208.13,-255.2 -1208.13,-255.2 l 80.38,-278.96 c 0,0 785.31,-234.43 1289.9,386.44 119.71,147.29 242.52,287.51 359.6,452.04 l 53.96,-222.46 C 4624.21,8572.11 4472.61,8372.36 4305.53,8183.88 3849.89,7758.27 3159.65,7946.04 3159.65,7946.04 l 78.43,-269.11 c 0,0 686.11,-198.68 1189.28,278.09 189.71,179.84 434.8,577.64 434.8,577.64 l 97.09,321.84 416.02,344.38 421.31,63.82" /><path
         id="path76"
         style="fill:#00447c;fill-opacity:1;fill-rule:nonzero;stroke:none"
         d="m 4516.44,9855.14 351.07,-1315.35 c 0,0 251.41,464.63 530.46,583.29 300.38,128 443.49,74.92 443.49,74.92 l -432.2,1358 c 0,0 -237.6,-31 -484.18,-230.4 -246.93,-199.5 -408.64,-470.46 -408.64,-470.46" /><path
         id="path78"
         style="fill:#ef3e33;fill-opacity:1;fill-rule:nonzero;stroke:none"
         d="m 8331.85,8436.89 c 414.18,94.15 856.17,-531.04 856.17,-531.04 189.01,-295.17 357.05,-521.31 545.53,-733.29 525.55,-496.4 1213.35,-298.86 1213.35,-298.86 l -72.6,-252.6 -17.1,-3.44 c -486.2,-87.89 -942.24,22.54 -1252.34,352.7 -193.86,218 -365.97,448.82 -558.48,749.48 -401.76,553.01 -655.65,455.52 -787.78,474.79" /><path
         id="path80"
         style="fill:#ef3e33;fill-opacity:1;fill-rule:nonzero;stroke:none"
         d="m 8495.23,8935.49 c 523.5,20.56 884.25,-537.6 884.25,-537.6 189.09,-295.16 362.25,-481.21 550.9,-693.09 523.12,-496.37 1171.72,-295.44 1171.72,-295.44 l -83.1,-285.83 c 0,0 -694.7,-230.02 -1256.31,393.89 -200.1,222.32 -372.28,456.18 -566.03,757.98 -357.86,474.3 -659.45,441.99 -769.04,451.63" /><path
         id="path82"
         style="fill:#ef3e33;fill-opacity:1;fill-rule:nonzero;stroke:none"
         d="m 9022.97,10562 c 128.25,-26.2 840.06,-635.69 887.07,-703.83 136.56,-198.77 267.66,-366.9 409.96,-527.34 451.9,-543.89 1237.8,-337.02 1237.8,-337.02 l -72.2,-250.54 c 0,0 -820.3,-274.07 -1309.7,380.25 -114.9,153.83 -245.09,291.51 -364.19,458.77 l -58.89,-242.7 c 152.74,-227.91 295.78,-414.75 452.38,-591.16 508.8,-492.62 1208.5,-255.16 1208.5,-255.16 l -80.5,-279.05 c 0,0 -785.2,-234.34 -1290.1,386.53 -119.67,147.24 -242.3,287.47 -359.49,451.99 l -53.94,-222.49 c 164.26,-249.08 315.85,-448.83 483.23,-637.3 455.5,-425.61 1145.7,-237.85 1145.7,-237.85 l -78.3,-269.06 c 0,0 -686.2,-198.78 -1189.35,278.04 -189.71,179.84 -434.53,577.65 -434.53,577.65 l -97.36,321.88 -416.02,344.33 -421.32,63.83" /><path
         id="path84"
         style="fill:#00447c;fill-opacity:1;fill-rule:nonzero;stroke:none"
         d="M 9901.85,9864.25 9550.88,8548.91 c 0,0 -251.24,464.57 -530.56,583.28 -300.27,127.95 -443.39,74.87 -443.39,74.87 l 432.14,1358.04 c 0,0 237.66,-31 484.23,-230.5 246.77,-199.4 408.55,-470.35 408.55,-470.35" /><path
         id="path86"
         style="fill:#ffffff;fill-opacity:1;fill-rule:nonzero;stroke:none"
         d="m 9079.31,10321.9 0.88,-75.3 -42.27,63.1 -74.72,-21.4 47.98,61.1 -37.24,55.4 62.49,-23.2 41.45,53.1 0.99,-68.8 66.99,-24.7" /><path
         id="path88"
         style="fill:#ffffff;fill-opacity:1;fill-rule:nonzero;stroke:none"
         d="m 9338.29,10198.1 0.35,-74.3 -41.37,62.3 -73.6,-21.4 47.54,60.4 -36.27,54.5 61.44,-22.6 41.38,52.7 0.27,-68.1 65.74,-24.2" /><path
         id="path90"
         style="fill:#ffffff;fill-opacity:1;fill-rule:nonzero;stroke:none"
         d="m 9575.96,9998.71 -0.07,-73.15 -40.33,61.09 -72.53,-21.48 47.28,59.73 -35.57,53.8 60.29,-22.1 41.04,51.9 0,-66.9 64.68,-23.7" /><path
         id="path92"
         style="fill:#ffffff;fill-opacity:1;fill-rule:nonzero;stroke:none"
         d="m 9709.41,9753.64 -71.55,-21.43 46.66,59.06 -34.7,52.51 59.33,-21.34 40.87,51.19 -0.37,-65.71 63.64,-23.03 -63.91,-19.27 -0.43,-72.01" /><path
         id="path94"
         style="fill:#ffffff;fill-opacity:1;fill-rule:nonzero;stroke:none"
         d="m 8970.14,10058.4 66.82,-23.9 -66.27,-19.5 1.3,-74.3 -42.6,62.2 -74.03,-21.96 47.44,60.66 -36.96,54.4 62.14,-22.2 41.02,52.6" /><path
         id="path96"
         style="fill:#ffffff;fill-opacity:1;fill-rule:nonzero;stroke:none"
         d="m 9235.64,9952.32 65.68,-23.62 -65.41,-19.25 0.43,-73.5 -41.36,61.48 -73.25,-21.87 47.27,60.03 -36.45,53.79 61.47,-22.13 41.01,52.25" /><path
         id="path98"
         style="fill:#ffffff;fill-opacity:1;fill-rule:nonzero;stroke:none"
         d="m 9539.27,9738.5 -64.27,-19.37 0,-72.4 -40.31,60.22 -72.29,-21.72 46.84,59.43 -35.48,52.69 60.31,-21.35 40.84,51.55 0,-66.16" /><path
         id="path100"
         style="fill:#ffffff;fill-opacity:1;fill-rule:nonzero;stroke:none"
         d="m 9627.47,9478.5 -71.32,-21.53 46.57,58.51 -34.77,51.71 59.26,-20.77 40.57,50.88 -0.26,-65.1 63.48,-22.18 -63.57,-19.33 -0.35,-71.16" /><path
         id="path102"
         style="fill:#ffffff;fill-opacity:1;fill-rule:nonzero;stroke:none"
         d="m 8838.81,9769.75 41.02,52.29 1.23,-66.94 66.46,-23.29 -65.67,-19.72 0.96,-73.16 -42.24,60.97 -73.77,-21.97 47,60.13 -37.06,53.34" /><path
         id="path104"
         style="fill:#ffffff;fill-opacity:1;fill-rule:nonzero;stroke:none"
         d="m 9136.7,9617.15 0.97,-72.58 -41.55,60.38 -72.71,-22 46.74,59.6 -36.36,52.81 61.26,-21.43 40.68,51.84 0.62,-66.32 65.5,-22.62" /><path
         id="path106"
         style="fill:#ffffff;fill-opacity:1;fill-rule:nonzero;stroke:none"
         d="m 9374.81,9438.8 0.27,-71.48 -40.5,59.15 -71.91,-21.74 46.65,58.81 -35.48,51.76 60.12,-20.6 40.5,51.14 0.17,-65.37 64.36,-22.17" /><path
         id="path108"
         style="fill:#ffffff;fill-opacity:1;fill-rule:nonzero;stroke:none"
         d="m 9537.14,9216.39 -71.21,-21.69 46.31,58.23 -34.6,50.78 59.06,-20.15 40.31,50.54 -0.24,-64.22 63.54,-21.7 -63.54,-19.47 -0.18,-70.28" /><path
         id="path110"
         style="fill:#ffffff;fill-opacity:1;fill-rule:nonzero;stroke:none"
         d="m 8710.45,9429.34 -37.22,52.47 62.05,-20.92 40.67,51.68 1.23,-65.98 66.29,-22.45 -65.32,-19.71 1.51,-72.46 -42.53,60 -73.5,-22.1" /><path
         id="path112"
         style="fill:#ffffff;fill-opacity:1;fill-rule:nonzero;stroke:none"
         d="m 8965.92,9336.91 -36.09,51.84 60.92,-20.64 40.49,51.32 0.88,-65.27 65.3,-22.19 -64.86,-19.72 1.06,-71.53 -41.57,59.12 -72.6,-21.91" /><path
         id="path114"
         style="fill:#ffffff;fill-opacity:1;fill-rule:nonzero;stroke:none"
         d="m 9213.55,9184.22 -35.64,51.01 60.11,-20.2 40.14,50.75 0.46,-64.4 64.25,-21.69 -64.08,-19.37 0.53,-70.78 -40.34,58.37 -71.82,-22.14" /><path
         id="path116"
         style="fill:#ffffff;fill-opacity:1;fill-rule:nonzero;stroke:none"
         d="m 9433.26,8970.21 -34.59,50.22 58.72,-19.66 39.87,50.18 0.09,-63.47 63.04,-20.91 -63.04,-19.55 0.18,-69.54 -39.61,57.13 -70.51,-22" /><path
         id="path118"
         style="fill:#ffffff;fill-opacity:1;fill-rule:nonzero;stroke:none"
         d="m 5319.2,10313.5 -0.8,-75.3 42.42,63.1 74.48,-21.4 -47.89,61.1 37.33,55.3 -62.67,-23.1 -41.55,53.1 -0.71,-68.8 -66.91,-24.7" /><path
         id="path120"
         style="fill:#ffffff;fill-opacity:1;fill-rule:nonzero;stroke:none"
         d="m 5060.47,10189.7 -0.52,-74.3 41.45,62.3 73.33,-21.4 -47.44,60.4 36.35,54.6 -61.44,-22.7 -41.2,52.7 -0.53,-68.1 -65.67,-24.2" /><path
         id="path122"
         style="fill:#ffffff;fill-opacity:1;fill-rule:nonzero;stroke:none"
         d="m 4822.61,9990.36 -0.07,-73.16 40.58,61.09 72.52,-21.47 -47.18,59.78 35.48,53.7 -60.29,-22.1 -41.22,51.9 0,-66.9 -64.51,-23.7" /><path
         id="path124"
         style="fill:#ffffff;fill-opacity:1;fill-rule:nonzero;stroke:none"
         d="m 4689.16,9745.29 71.66,-21.49 -46.84,59.06 34.7,52.55 -59.34,-21.37 -40.68,51.22 0.36,-65.76 -63.73,-22.96 64.07,-19.3 0.37,-72" /><path
         id="path126"
         style="fill:#ffffff;fill-opacity:1;fill-rule:nonzero;stroke:none"
         d="m 5428.45,10050 -66.74,-23.9 66.11,-19.5 -1.14,-74.26 42.44,62.23 73.95,-22.01 -47.38,60.64 37.15,54.4 -62.23,-22.2 -41.11,52.6" /><path
         id="path128"
         style="fill:#ffffff;fill-opacity:1;fill-rule:nonzero;stroke:none"
         d="m 5162.95,9943.96 -65.68,-23.68 65.5,-19.19 -0.53,-73.5 41.55,61.43 73.07,-21.82 -47.18,60.03 36.25,53.8 -61.36,-22.19 -41.01,52.26" /><path
         id="path130"
         style="fill:#ffffff;fill-opacity:1;fill-rule:nonzero;stroke:none"
         d="m 4859.23,9730.13 64.44,-19.37 0,-72.44 40.32,60.21 72.37,-21.66 -47.01,59.43 35.46,52.64 -60.38,-21.31 -40.58,51.5 -0.18,-66.11" /><path
         id="path132"
         style="fill:#ffffff;fill-opacity:1;fill-rule:nonzero;stroke:none"
         d="m 4771.03,9470.09 71.3,-21.56 -46.47,58.54 34.68,51.76 -59.07,-20.78 -40.66,50.88 0.26,-65.14 -63.39,-22.18 63.39,-19.28 0.35,-71.22" /><path
         id="path134"
         style="fill:#ffffff;fill-opacity:1;fill-rule:nonzero;stroke:none"
         d="m 5559.6,9761.39 -40.84,52.29 -1.14,-66.99 -66.64,-23.24 65.85,-19.72 -1.15,-73.15 42.25,60.91 73.96,-21.92 -47.1,60.13 37.06,53.34" /><path
         id="path136"
         style="fill:#ffffff;fill-opacity:1;fill-rule:nonzero;stroke:none"
         d="m 5261.71,9608.74 -0.7,-72.53 41.54,60.39 72.63,-22.02 -46.74,59.51 36.44,52.91 -61.34,-21.48 -40.69,51.85 -0.7,-66.29 -65.32,-22.62" /><path
         id="path138"
         style="fill:#ffffff;fill-opacity:1;fill-rule:nonzero;stroke:none"
         d="m 5023.87,9430.4 -0.35,-71.48 40.49,59.15 71.91,-21.74 -46.66,58.8 35.39,51.77 -59.85,-20.6 -40.59,51.14 -0.16,-65.31 -64.36,-22.19" /><path
         id="path140"
         style="fill:#ffffff;fill-opacity:1;fill-rule:nonzero;stroke:none"
         d="m 4861.52,9208.03 70.96,-21.75 -46.13,58.28 34.69,50.79 -58.99,-20.15 -40.4,50.43 0.08,-64.17 -63.28,-21.66 63.28,-19.45 0.11,-70.24" /><path
         id="path142"
         style="fill:#ffffff;fill-opacity:1;fill-rule:nonzero;stroke:none"
         d="m 5687.94,9420.98 37.43,52.38 -62.06,-20.87 -40.67,51.67 -1.23,-65.92 -66.38,-22.46 65.5,-19.8 -1.51,-72.36 42.53,59.94 73.42,-22.09" /><path
         id="path144"
         style="fill:#ffffff;fill-opacity:1;fill-rule:nonzero;stroke:none"
         d="m 5432.49,9328.46 36.27,51.94 -60.91,-20.69 -40.59,51.32 -0.8,-65.24 -65.32,-22.26 64.8,-19.72 -1.06,-71.48 41.73,59.16 72.54,-21.93" /><path
         id="path146"
         style="fill:#ffffff;fill-opacity:1;fill-rule:nonzero;stroke:none"
         d="m 5185.12,9175.81 35.4,51.06 -60.04,-20.25 -39.96,50.8 -0.53,-64.45 -64.18,-21.65 63.83,-19.37 -0.37,-70.77 40.51,58.27 71.65,-22.09" /><path
         id="path148"
         style="fill:#ffffff;fill-opacity:1;fill-rule:nonzero;stroke:none"
         d="m 4965.4,8961.81 34.51,50.27 -58.8,-19.72 -39.79,50.18 0,-63.47 -63.21,-20.86 63.21,-19.54 -0.26,-69.55 39.53,57.13 70.76,-22.01" /><path
         id="path150"
         style="fill:#00447c;fill-opacity:1;fill-rule:nonzero;stroke:none"
         d="m 6840.08,4392.36 329.25,1090.77 333.63,-1090.77 -662.88,0 z m 2408.5,6605.24 c 0,182.6 -147.97,330.6 -330.54,330.6 -182.58,0 -330.57,-148 -330.57,-330.6 0,-79 28.89,-150.5 75.1,-207.4 l -64.7,21.3 -1385.94,-4240.67 -1396.68,4222.37 -64.45,-21.3 c 47.28,57.2 76.86,129.6 76.86,209.6 0,182.6 -147.97,330.5 -330.55,330.5 -182.57,0 -330.56,-147.9 -330.56,-330.5 0,-155 107.04,-284.1 250.97,-319.8 l -71.91,-23.8 1389.1,-4199.29 -1121.05,-3218.37 870.16,0 121.76,361.97 1140.87,0 117.08,-361.97 883.99,0 -1060.84,3225.15 1376.95,4212.91 -62.57,20.6 c 142.06,37 247.52,165 247.52,318.7" /></g></g></svg>